<svg width="33" height="23" viewBox="0 0 33 23" fill="none" xmlns="http://www.w3.org/2000/svg">
<g clip-path="url(#clip0_526_2)">
<path d="M5.19134 0.466892C5.53514 0.351861 6.11959 0.202997 6.49777 0.135331C6.87594 0.0676654 7.40539 0.00676654 7.66668 0C7.92796 0 8.40928 0.0405992 8.73245 0.0947316C9.05562 0.155631 9.55069 0.263896 9.8326 0.338328C10.1145 0.41276 10.5683 0.575157 10.8296 0.696955C11.0909 0.818752 11.5378 1.05559 11.806 1.23152C12.081 1.40745 12.5623 1.78637 12.8718 2.07733C13.1743 2.36153 13.6006 2.82842 13.8138 3.10585C14.0269 3.38328 14.3295 3.85694 14.4807 4.15466C14.6389 4.45239 14.852 4.92605 14.9483 5.20348C15.0514 5.48091 15.189 5.9275 15.2508 6.18463C15.3471 6.56355 15.3677 6.97631 15.3677 8.21459C15.3677 9.37167 15.3334 9.98066 15.2371 10.5829C15.1683 11.0295 14.9896 11.8685 14.8452 12.4437C14.6939 13.0188 14.4326 13.8444 14.2607 14.2707C14.0819 14.697 13.8069 15.3059 13.6419 15.624C13.4769 15.942 13.1331 16.5172 12.8649 16.9096C12.6036 17.3021 12.1292 17.9246 11.8197 18.2968C11.5035 18.6621 10.9328 19.2373 10.5546 19.5689C10.1764 19.8937 9.60569 20.347 9.28252 20.5703C8.95936 20.7936 8.3749 21.1658 7.9761 21.3891C7.57729 21.6124 6.95158 21.9304 6.58715 22.0928C6.21585 22.2552 5.50076 22.5258 4.99881 22.695C4.50374 22.8642 4.01555 22.9995 3.91929 22.9995C3.82302 22.9995 3.54799 22.898 3.30045 22.7762C2.99791 22.6273 2.79851 22.4717 2.66787 22.289C2.56473 22.1401 2.44096 21.883 2.3997 21.7139C2.33095 21.477 2.33095 21.3282 2.39283 21.0372C2.46159 20.7192 2.58535 20.5297 3.27295 19.6839C3.70613 19.1426 4.25621 18.4118 4.49687 18.0599C4.73753 17.7081 5.10195 17.1126 5.3151 16.7404C5.52826 16.3683 5.79642 15.8337 5.91331 15.5563C6.0302 15.2789 6.10584 15.0353 6.07833 15.015C6.05771 14.9947 5.78267 14.9135 5.47325 14.8255C5.17071 14.7443 4.65501 14.5481 4.33184 14.3992C4.00868 14.2436 3.52048 13.9662 3.23857 13.7767C2.95666 13.5805 2.46159 13.1474 2.13842 12.8159C1.80837 12.4843 1.38206 11.9497 1.18266 11.6317C0.98326 11.3137 0.72885 10.8265 0.611959 10.5491C0.495068 10.2716 0.309417 9.69646 0.199402 9.2837C0.0412557 8.68148 0 8.37022 0 7.8289C0 7.4432 0.0481316 6.84098 0.103139 6.48912C0.151271 6.13726 0.281914 5.6027 0.378177 5.30498C0.481316 5.00725 0.673842 4.53359 0.818237 4.25616C0.955756 3.97873 1.21017 3.55244 1.37519 3.30885C1.54709 3.06525 1.88401 2.65926 2.13154 2.40213C2.37908 2.15177 2.79163 1.77961 3.0598 1.58338C3.32108 1.38715 3.77489 1.10295 4.05681 0.954083C4.33872 0.805219 4.84754 0.58869 5.19134 0.466892Z" fill="#A8A8A8"/>
<path d="M22.9296 0.406507C23.1977 0.325309 23.7203 0.203511 24.0985 0.135845C24.4767 0.0614134 24.9855 0.00051447 25.233 0.00051447C25.4805 -0.00625208 26.0169 0.0546468 26.4363 0.129079C26.8557 0.203511 27.4058 0.332075 27.674 0.42004C27.9421 0.508005 28.4166 0.717768 28.7397 0.880165C29.0629 1.04256 29.558 1.34706 29.8399 1.55682C30.1218 1.76658 30.5412 2.13198 30.7613 2.36881C30.9882 2.60563 31.3182 3.01839 31.5108 3.27552C31.6964 3.53265 31.9646 3.98601 32.1158 4.27697C32.2602 4.56117 32.4596 5.02129 32.549 5.29195C32.6453 5.55585 32.7897 6.08364 32.8722 6.4558C33.0028 7.05802 33.0166 7.26102 32.9822 8.3166C32.9616 8.96619 32.8928 9.86614 32.8309 10.3127C32.769 10.7593 32.6453 11.4766 32.549 11.9029C32.4528 12.3292 32.2465 13.0802 32.0815 13.5607C31.9164 14.0411 31.6139 14.7922 31.4076 15.2185C31.2013 15.6448 30.8713 16.2538 30.665 16.5718C30.4656 16.8898 30.1149 17.3905 29.8812 17.6883C29.6542 17.986 29.2004 18.5002 28.8773 18.8318C28.5541 19.1634 28.0315 19.6506 27.7084 19.9145C27.3852 20.1784 26.8145 20.5979 26.4363 20.8482C26.0581 21.0986 25.3912 21.4843 24.958 21.7076C24.5248 21.9309 23.8097 22.2489 23.3765 22.4113C22.9433 22.5737 22.3795 22.7767 22.1182 22.8579C21.8638 22.9323 21.5956 23 21.52 23C21.4444 23 21.2175 22.9391 21.0181 22.8714C20.7843 22.7835 20.5642 22.6346 20.3924 22.4451C20.2411 22.2827 20.0761 22.0527 20.0279 21.9377C19.9798 21.8159 19.9385 21.552 19.9385 21.3625C19.9385 21.1663 20.0004 20.8821 20.0623 20.7332C20.1311 20.5843 20.4955 20.0972 20.8668 19.6506C21.2381 19.204 21.8157 18.4258 22.1526 17.9251C22.4895 17.4244 22.9571 16.6124 23.2046 16.132C23.4453 15.6515 23.6515 15.1982 23.6653 15.1305C23.6791 15.0222 23.6034 14.9816 23.2046 14.8801C22.9365 14.8192 22.462 14.6501 22.1388 14.5148C21.8157 14.3794 21.2931 14.0952 20.9699 13.8787C20.6468 13.6689 20.1379 13.2562 19.8285 12.9517C19.526 12.654 19.1134 12.1668 18.9071 11.869C18.7009 11.5713 18.419 11.0841 18.2814 10.7864C18.137 10.4887 17.9308 9.94057 17.8276 9.56841C17.6488 8.93235 17.6351 8.81732 17.642 7.60611C17.642 6.52346 17.6626 6.23927 17.7864 5.81298C17.862 5.53555 18.027 5.06189 18.1508 4.76416C18.2677 4.46643 18.5083 3.99278 18.6734 3.71535C18.8453 3.43792 19.1891 2.97103 19.4435 2.68007C19.6979 2.38911 20.1517 1.95605 20.4542 1.71922C20.7568 1.47562 21.3275 1.11699 21.7263 0.913998C22.1251 0.717768 22.6614 0.487706 22.9296 0.406507Z" fill="#A8A8A8"/>
</g>
<defs>
<clipPath id="clip0_526_2">
<rect width="33" height="23" fill="white"/>
</clipPath>
</defs>
</svg>
