<svg width="33" height="23" viewBox="0 0 33 23" fill="none" xmlns="http://www.w3.org/2000/svg">
<path d="M5.19134 0.467406C5.53514 0.352375 6.11959 0.203511 6.49777 0.135845C6.87594 0.0681799 7.40539 0.00728101 7.66668 0.000514469C7.92796 0.000514469 8.40928 0.0411137 8.73245 0.0952461C9.05562 0.156145 9.55069 0.26441 9.8326 0.338842C10.1145 0.413274 10.5683 0.575671 10.8296 0.697469C11.0909 0.819266 11.5378 1.0561 11.806 1.23203C12.081 1.40796 12.5623 1.78688 12.8718 2.07784C13.1743 2.36204 13.6006 2.82893 13.8138 3.10636C14.0269 3.38379 14.3295 3.85745 14.4807 4.15517C14.6389 4.4529 14.852 4.92656 14.9483 5.20399C15.0514 5.48142 15.189 5.92801 15.2508 6.18514C15.3471 6.56406 15.3677 6.97682 15.3677 8.2151C15.3677 9.37218 15.3334 9.98117 15.2371 10.5834C15.1683 11.03 14.9896 11.869 14.8452 12.4442C14.6939 13.0193 14.4326 13.8449 14.2607 14.2712C14.0819 14.6975 13.8069 15.3064 13.6419 15.6245C13.4769 15.9425 13.1331 16.5177 12.8649 16.9101C12.6036 17.3026 12.1292 17.9251 11.8197 18.2973C11.5035 18.6626 10.9328 19.2378 10.5546 19.5694C10.1764 19.8942 9.60569 20.3475 9.28252 20.5708C8.95936 20.7941 8.3749 21.1663 7.9761 21.3896C7.57729 21.6129 6.95158 21.9309 6.58715 22.0933C6.21585 22.2557 5.50076 22.5263 4.99881 22.6955C4.50374 22.8647 4.01555 23 3.91929 23C3.82302 23 3.54799 22.8985 3.30045 22.7767C2.99791 22.6278 2.79851 22.4722 2.66787 22.2895C2.56473 22.1406 2.44096 21.8835 2.3997 21.7144C2.33095 21.4775 2.33095 21.3287 2.39283 21.0377C2.46159 20.7197 2.58535 20.5302 3.27295 19.6844C3.70613 19.1431 4.25621 18.4123 4.49687 18.0604C4.73753 17.7086 5.10195 17.1131 5.3151 16.7409C5.52826 16.3688 5.79642 15.8342 5.91331 15.5568C6.0302 15.2794 6.10584 15.0358 6.07833 15.0155C6.05771 14.9952 5.78267 14.914 5.47325 14.826C5.17071 14.7448 4.65501 14.5486 4.33184 14.3997C4.00868 14.2441 3.52048 13.9667 3.23857 13.7772C2.95666 13.581 2.46159 13.1479 2.13842 12.8164C1.80837 12.4848 1.38206 11.9502 1.18266 11.6322C0.98326 11.3142 0.72885 10.827 0.611959 10.5496C0.495068 10.2721 0.309417 9.69697 0.199402 9.28421C0.0412557 8.68199 0 8.37073 0 7.82941C0 7.44371 0.0481316 6.84149 0.103139 6.48963C0.151271 6.13777 0.281914 5.60321 0.378177 5.30549C0.481316 5.00776 0.673842 4.5341 0.818237 4.25667C0.955756 3.97924 1.21017 3.55295 1.37519 3.30936C1.54709 3.06576 1.88401 2.65977 2.13154 2.40264C2.37908 2.15228 2.79163 1.78012 3.0598 1.58389C3.32108 1.38766 3.77489 1.10346 4.05681 0.954597C4.33872 0.805733 4.84754 0.589204 5.19134 0.467406Z" fill="#32302F"/>
<path d="M22.9313 0.406507C23.1994 0.325309 23.722 0.203511 24.1002 0.135845C24.4784 0.0614134 24.9872 0.000514469 25.2347 0.000514469C25.4822 -0.00625208 26.0186 0.0546468 26.438 0.129079C26.8574 0.203511 27.4075 0.332075 27.6757 0.42004C27.9438 0.508005 28.4183 0.717768 28.7414 0.880165C29.0646 1.04256 29.5597 1.34706 29.8416 1.55682C30.1235 1.76658 30.5429 2.13198 30.763 2.36881C30.9899 2.60563 31.3199 3.01839 31.5125 3.27552C31.6981 3.53265 31.9663 3.98601 32.1175 4.27697C32.2619 4.56117 32.4613 5.02129 32.5507 5.29195C32.647 5.55585 32.7914 6.08364 32.8739 6.4558C33.0045 7.05802 33.0183 7.26102 32.9839 8.3166C32.9633 8.96619 32.8945 9.86614 32.8326 10.3127C32.7707 10.7593 32.647 11.4766 32.5507 11.9029C32.4545 12.3292 32.2482 13.0802 32.0832 13.5607C31.9181 14.0411 31.6156 14.7922 31.4093 15.2185C31.203 15.6448 30.873 16.2538 30.6667 16.5718C30.4673 16.8898 30.1166 17.3905 29.8829 17.6883C29.6559 17.986 29.2021 18.5002 28.879 18.8318C28.5558 19.1634 28.0332 19.6506 27.7101 19.9145C27.3869 20.1784 26.8162 20.5979 26.438 20.8482C26.0598 21.0986 25.3929 21.4843 24.9597 21.7076C24.5265 21.9309 23.8114 22.2489 23.3782 22.4113C22.945 22.5737 22.3812 22.7767 22.1199 22.8579C21.8655 22.9323 21.5973 23 21.5217 23C21.4461 23 21.2192 22.9391 21.0198 22.8714C20.786 22.7835 20.5659 22.6346 20.3941 22.4451C20.2428 22.2827 20.0778 22.0527 20.0296 21.9377C19.9815 21.8159 19.9402 21.552 19.9402 21.3625C19.9402 21.1663 20.0021 20.8821 20.064 20.7332C20.1328 20.5843 20.4972 20.0972 20.8685 19.6506C21.2398 19.204 21.8174 18.4258 22.1543 17.9251C22.4912 17.4244 22.9588 16.6124 23.2063 16.132C23.447 15.6515 23.6532 15.1982 23.667 15.1305C23.6808 15.0222 23.6051 14.9816 23.2063 14.8801C22.9382 14.8192 22.4637 14.6501 22.1405 14.5148C21.8174 14.3794 21.2948 14.0952 20.9716 13.8787C20.6485 13.6689 20.1396 13.2562 19.8302 12.9517C19.5277 12.654 19.1151 12.1668 18.9088 11.869C18.7026 11.5713 18.4207 11.0841 18.2831 10.7864C18.1387 10.4887 17.9325 9.94057 17.8293 9.56841C17.6505 8.93235 17.6368 8.81732 17.6437 7.60611C17.6437 6.52346 17.6643 6.23927 17.7881 5.81298C17.8637 5.53555 18.0287 5.06189 18.1525 4.76416C18.2694 4.46643 18.51 3.99278 18.6751 3.71535C18.847 3.43792 19.1908 2.97103 19.4452 2.68007C19.6996 2.38911 20.1534 1.95605 20.4559 1.71922C20.7585 1.47562 21.3292 1.11699 21.728 0.913998C22.1268 0.717768 22.6631 0.487706 22.9313 0.406507Z" fill="#32302F"/>
</svg>
