<svg width="30" height="30" viewBox="0 0 30 30" fill="none" xmlns="http://www.w3.org/2000/svg">
<path fill-rule="evenodd" clip-rule="evenodd" d="M26.0483 11.8534C23.8585 9.02489 20.0263 5.3125 14.9966 5.3125C9.96688 5.3125 6.1347 9.02489 3.94487 11.8534C3.15709 12.871 2.7632 13.3798 2.6192 14.4662C2.58527 14.7222 2.58527 15.2778 2.6192 15.5338C2.7632 16.6202 3.15709 17.129 3.94487 18.1466C6.1347 20.9751 9.96688 24.6875 14.9966 24.6875C20.0263 24.6875 23.8585 20.9751 26.0483 18.1466C26.8361 17.129 27.23 16.6202 27.374 15.5338C27.408 15.2778 27.408 14.7222 27.374 14.4662C27.23 13.3798 26.8361 12.871 26.0483 11.8534ZM14.9966 19.375C17.4128 19.375 19.3716 17.4163 19.3716 15C19.3716 12.5838 17.4128 10.625 14.9966 10.625C12.5803 10.625 10.6216 12.5838 10.6216 15C10.6216 17.4163 12.5803 19.375 14.9966 19.375Z" fill="black"/>
<path d="M14.9998 6.25C19.0515 6.25 22.6063 9.19042 24.8786 11.6622C25.8874 12.7594 26.3918 13.308 26.562 14.4445C26.6036 14.7228 26.6036 15.2772 26.562 15.5555C26.3918 16.692 25.8874 17.2406 24.8786 18.3379C22.6063 20.8096 19.0515 23.75 14.9998 23.75C10.9481 23.75 7.39327 20.8096 5.12084 18.3379C4.11211 17.2406 3.60774 16.692 3.43751 15.5555C3.39583 15.2772 3.39583 14.7228 3.43751 14.4445C3.60774 13.308 4.11211 12.7594 5.12084 11.6622C7.39328 9.19042 10.9481 6.25 14.9998 6.25Z" stroke="black" stroke-width="2.5" stroke-linejoin="round"/>
</svg>
